/* XPM */
static char *result[] = {
/* columns rows colors chars-per-pixel */
"32 32 14 1",
"  c None",
"a c None",
"b c None",
"c c None",
"d c #fa312b",
"e c #f9312f",
"f c #f9302f",
"g c #f8312f",
"h c #f8302f",
"i c #f9312e",
"j c None",
"k c #f8312e",
"l c #f9302e",
"m c #f8302e",
"      a     ba              aa a",
"     a           c       b a  ba",
"  deeeeeeeeefeeeeefeeeeeeeeeeba ",
"  gheeeeeefeeeegeefieeefefeefe  ",
" beffeeeeeeieeeeeeeeeffgeeeiee  ",
"  eefiieeeeeeeeeeeeeeeeeheeief  ",
" jeegegeeeeeeegeeefeeeeeieeeeg b",
"  eeiieieeeeeeigeefeeiegeeeeee  ",
"  eeeeeekieeeeeefeeegeeeeeieee  ",
"  efeeeeeieieeeeeeegeeeieeeeee  ",
"  ieeefeiekefeeeeggieeeeegeeee  ",
"  eeeegeeeeeeeeegigfeefeeeekee  ",
"  efgeeeefegieeeegeeeeegeeegeg  ",
"  eeieegieeeeeeeeieeeeeeeeeeeg  ",
"j eeeekefeiheeeiilieeeeeeeeeee b",
"  eeegeeeeeeiiiefeeeeeeeeeieeg  ",
"  egeeeeeeegeeieheeieeeefeeeee b",
"  eeeieeeeeeeeeeeieeefeeeeeegf  ",
" aeeefeeeeeieeeeeeefeefeeeeeie  ",
" aeeeeeeeeeefeegefeeeeefeeeeee  ",
"  eekeeeieiefgeeeeihggfeeeeiee  ",
"  eeeefeeieeeeeeegfeieeeeeeeee  ",
"  eeeegeeeefeeieeeefeeeeeeeeeg  ",
"  eeelegmeeeeeeeeeeeeeheeefeee  ",
"  eeeeehefeeeeegeefeeeeefeeiee  ",
"  eeeeeeeeeeieheeeeeeeehffeeee  ",
"  eefgeeeieeeegeeeeeeegeefeeee  ",
"  eeeeeeeeeieegeeeieeegeeifeee  ",
"  eeeeeeegeeefeeeeeeeeggeeefie  ",
"   eeieeeeggeegeeeeeifegeeeeib  ",
"          jb      b  j a     ba ",
"         bb    a     b     a    "
};