/* XPM */
static char *result[] = {
/* columns rows colors chars-per-pixel */
"32 32 38 1",
"  c None",
"a c None",
"b c None",
"c c None",
"d c None",
"e c #ccc8cc",
"f c #000000",
"g c #524e52",
"h c #3d3c3d",
"i c #524f52",
"j c None",
"k c #9e9e9e",
"l c #010000",
"m c #4d2b20",
"n c #524f53",
"o c None",
"p c #9c6f61",
"q c #4d2a20",
"r c #bd7f6a",
"s c #9e9f9e",
"t c #9c6e61",
"u c #bd7e6a",
"v c #000001",
"w c #9c6f60",
"x c #4c2b20",
"y c #4d2b21",
"z c #9c6e60",
"A c #000100",
"B c #9d6f61",
"C c #9f9e9e",
"D c #000101",
"E c #534f52",
"F c #9e6f2e",
"G c #9d6e61",
"H c #bd7e6b",
"I c #bd7f6b",
"J c #9e9e9f",
"K c #9f9f9e",
"                   a            ",
"a           a     a b    c    a ",
"c dd      ac efgfhie  j      a  ",
"    dd     fkilmmmfnnf      co  ",
"     jcc  fimmppppppmif        d",
" dd     dhimpmqpppprmpii    d   ",
" d  c  afsfmpmmtpppumpfkv    j  ",
"    d c kiwxpmppppppmppfed j    ",
"   dd  ffftmpywpppptmtpfff      ",
" d     fkfpmpmpppzppmxpfkl  dac ",
"     d fkApqtmrtBpppmmpfkA  cd  ",
" cc    vfvpmwmrpppppmkCflf   a  ",
"  a    fkDpypmrppppwmiEfkf   a  ",
"c      vkApmpmrwpBppmppfkfj     ",
"    d  flfwmFmpppGwpqpBfff      ",
" c     fkfpmFmppppppqHBlkf      ",
"      dfffpmpmppppppmIpfflbc   c",
" d     fJfwmpmppwrppmrpfhf      ",
"   b   fffpmpyppprppmppflf d    ",
"   c   fkfwmpippprwpmpplkfd  a  ",
"      cfkfpmpmppprppqpplKf  c c ",
"    jadfkfrmpmppprptytpfkf    c ",
"  c jo fhfrmmmpppppwmppfkf      ",
"       fKfrmmxmpBtppmppfkf c    ",
"       fffpmmympppppmCkvff      ",
" c    cfkfpmmxppppppmiifhf ca d ",
"    a  vkfpmmqppprppmppfiv     a",
"  c    fffmmpmppprppxppfff      ",
"      cfkApqpmppBrppxmpfkf     a",
"  d    fiDpmpmppptppmppfif      ",
"   ac  fkfmmpxpymwppxmpfkf  ada ",
"  c    fvfAffxfAffffmfffff      "
};