/* XPM */
static char *result[] = {
/* columns rows colors chars-per-pixel */
"34 34 71 1",
"  c None",
"a c None",
"b c None",
"c c None",
"d c #480000",
"e c #490000",
"f c #490101",
"g c #490001",
"h c #652727",
"i c #ffffff",
"j c #fffeff",
"k c #490000",
"l c #e5dbdb",
"m c #e5dbda",
"n c #e9dcbe",
"o c #ffec23",
"p c #feec23",
"q c #e5c800",
"r c #fffbd7",
"s c #ffe900",
"t c #fee901",
"u c #480000",
"v c #fee900",
"w c #ffe901",
"x c #ffe800",
"y c #3b0000",
"z c #e5c801",
"A c #f9b000",
"B c #f9b001",
"C c #e09700",
"D c #f8b000",
"E c #fee001",
"F c #dd9500",
"G c #dd9400",
"H c #4a0000",
"I c #ffe100",
"J c #ffec00",
"K c #fee100",
"L c #ffed00",
"M c #e2c400",
"N c #ffbc00",
"O c #f9b100",
"P c #fee000",
"Q c #480001",
"R c #4e0001",
"S c #4e0000",
"T c #460000",
"U c #f8af00",
"V c #4c0000",
"W c #ffff00",
"X c #fff300",
"Y c #fddf00",
"Z c #fcdf00",
"0 c #da9100",
"1 c #490000",
"2 c #490000",
"3 c #fffa00",
"4 c #fbb100",
"5 c #f8ab00",
"6 c #f8b001",
"7 c None",
"8 c #e19700",
"9 c #ffe801",
"- c #480001",
"+ c #490000",
"= c #480000",
"( c #ffe000",
") c #cb8200",
"[ c #490001",
"] c None",
"* c #490100",
"  aba c     c b         b b     aa",
"        b   defgeeeee cb    a a   ",
"c       a eehiiijiijieee   a ca   ",
"     a  kklmnooooooopqqqkk   aa   ",
"        eeiirsssssssstssee   c    ",
" ba c euiivsssssswssvssxsvyek b   ",
" b   eiistsxwsssssssxsssxsswqe c  ",
"caa  eiissswsxssxsvssssvsvsszee  b",
"   kuAssssssxvssssssssssvssBCee  b",
"bb keAssssssssssssvssvsssxvACg    ",
"  gCDvswxsssssssswsswxswvvAek     ",
" ceCAsssswwsvssssssswsssDAgbaabee ",
"  uCAssxsvswsssssssssvsEFGH  eesse",
" eAIwswsssssssssssxsxssAeec aeeJJe",
" eAKvssxwssssxsssssxxLAec      ueb",
" eBKsssssssvMeeessssANe        ee ",
" gOKssxsssssMeeessssBNe c       c ",
" eAKssssssssPgQAwssAeR    SeT     ",
" eAKsswsssssPAAAsUAe     VWXXVV  b",
" eAKsssssxsvxYYssZY012   g3svgebc ",
" eAAAsxssxsswsvssssAeS   eNAOeeb  ",
" SN4Bswvssxsvssssws5ANe  cSeea    ",
"  eCBsssssswvsssssxsABAeb Seec   a",
"a eC6wswsssvssssssssvLAu  7       ",
"  e8OAsssssxsssvssssws9Aee        ",
"   -eABAssssvwssssvssssAAAe     b ",
"   keAAAwsssxsssvxssssssDANS+   ab",
"b c  eAAAAsssswsssswsswxw9Aeec c  ",
"  a  =8CDAKKwsssxvswsssKK(BC)     ",
" b   ageAAAAssssxsssvssAAAAe[b    ",
"        ueAABAAAAABAAAAAOee       ",
"      b   eeeOABBAAAAAAge  bc  a  ",
"          eegAAAAOAAAADue   7     ",
"       ]     e*eeeeeeee    b   c  "
};