/* XPM */
static char *result[] = {
/* columns rows colors chars-per-pixel */
"32 32 16 1",
"  c None",
"a c None",
"b c None",
"c c None",
"d c #ffffff",
"e c None",
"f c #2c25b4",
"g c #2c25b5",
"h c #2c24b5",
"i c #2c24b4",
"j c #2d25b5",
"k c #2d25b4",
"l c None",
"m c #2d24b4",
"n c None",
"o c #ffffff",
"     a        b   b    c       d",
"         a  b  c   cc a         ",
"       e c          c  b a a    ",
"   fghfgfffffgfifffjfifffffkf   ",
"   fffgfffffffjffgfiffffkffff  b",
"b  fffffffffkiifgfffffffgfkfibb ",
"   ffffffjfffffffffifffffffff  b",
"c cfffffffiigfffiffkfffhfhfffb  ",
"   iffifffgfffffffffkffffhfff   ",
" c iffffffffgffffifffgfffffkf b ",
" a fkiffiffkffffffffffffkfffi   ",
"a afiffgifkfffkffggfkfffffgfhb  ",
"a  fffgffffgfgffffkifffjffffi   ",
"   ffffjfgffffffffgfgfffiffff aa",
"  akfffkfihffgfffifffffkfffff   ",
" a fffkiffffffifffkgfgfhfffff   ",
"  cffffkfffffgfffffffffjiffff   ",
"   iffffkffifgffffhffffkfffffl  ",
"   fffjfffffkffmffffffgfiffff   ",
"   giffffffffffiifkffffffffif   ",
"   gffffffiffffffffffffkffiffb  ",
"  bfgffffffffffffffffgigfkgff   ",
"   ffffffkgffffgfkffgffffjffg   ",
" l ififffffffkfffffkfffffffgf   ",
"   fgffffffgjffffffffgfffffif e ",
"  akhigffffffffifffffffffgiff   ",
"c bfffiffffffikgfgfffffffffgf   ",
"   ffkfffffjffffkfkfffffkffffn  ",
"  bfffffffiffffkfiiffgkiffgig aa",
"      c c    c a bb  b   e    c ",
"  a        b       a      b ac  ",
"         c ac         b        o"
};